<svg width="20" height="20" viewBox="0 0 20 20" fill="none" xmlns="http://www.w3.org/2000/svg">
<path d="M9.98835 10.2845C7.63419 10.2845 5.67752 8.32949 5.67752 6.01616C5.67752 3.62283 7.63419 1.66699 9.98919 1.66699C12.4242 1.66699 14.3 3.62199 14.3 6.01616C14.2958 7.15203 13.8408 8.23977 13.035 9.0403C12.2291 9.84083 11.1384 10.2886 10.0025 10.2853L9.98835 10.2845ZM9.98835 4.18116C8.99169 4.18116 8.23335 5.01866 8.23335 6.01699C8.23335 7.01366 8.99169 7.77199 9.98919 7.77199C11.0267 7.77199 11.745 7.01366 11.745 6.01699C11.7459 5.01783 11.0267 4.18116 9.98835 4.18116ZM11.705 13.8362L14.1409 16.1903C14.62 16.7078 14.62 17.4662 14.1409 17.9453C13.6225 18.4628 12.8234 18.4628 12.4242 17.9453L9.98919 15.5512L7.63419 17.9453C7.39502 18.1845 7.07502 18.3037 6.71502 18.3037C6.43585 18.3037 6.11669 18.1837 5.83669 17.9453C5.35752 17.4662 5.35752 16.7078 5.83669 16.1895L8.31169 13.8353C7.41788 13.5706 6.56047 13.1958 5.75919 12.7195C5.16002 12.4003 5.04085 11.6028 5.36002 11.0037C5.75919 10.4053 6.47752 10.2462 7.11669 10.6453C7.98218 11.1735 8.9765 11.4529 9.99044 11.4529C11.0044 11.4529 11.9987 11.1735 12.8642 10.6453C13.5034 10.2462 14.2609 10.4053 14.62 11.0037C14.98 11.6028 14.8192 12.3995 14.26 12.7195C13.5025 13.1987 12.6242 13.5578 11.7059 13.837L11.705 13.8362Z" fill="white"/>
</svg>
