<svg width="80" height="80" viewBox="0 0 80 80" fill="none" xmlns="http://www.w3.org/2000/svg">
<rect width="80" height="80" rx="40" fill="#F2C476"/>
<path d="M62.5 17.5H56.875V21.25L62.5 21.2481V58.75H56.875V62.5H62.5C64.5681 62.5 66.25 60.8181 66.25 58.75V21.25C66.25 19.1819 64.5681 17.5 62.5 17.5Z" fill="#575757"/>
<path d="M40 45.625C42.0711 45.625 43.75 43.9461 43.75 41.875C43.75 39.8039 42.0711 38.125 40 38.125C37.9289 38.125 36.25 39.8039 36.25 41.875C36.25 43.9461 37.9289 45.625 40 45.625Z" fill="#575757"/>
<path d="M51.25 17.5V62.5C51.25 64.5681 49.5681 66.25 47.5 66.25H17.5C15.4319 66.25 13.75 64.5681 13.75 62.5V17.5C13.75 15.4319 15.4319 13.75 17.5 13.75H47.5C49.5681 13.75 51.25 15.4319 51.25 17.5ZM17.5 62.5H47.5V17.4981L17.5 17.5V62.5Z" fill="#575757"/>
</svg>
