<svg width="80" height="80" viewBox="0 0 80 80" fill="none" xmlns="http://www.w3.org/2000/svg">
<g clip-path="url(#clip0_2_257)">
<rect width="80" height="80" rx="40" fill="#F2C476"/>
<g clip-path="url(#clip1_2_257)">
<path d="M23.7715 34.9055L17.7093 38.4055C17.3648 38.6044 17.1134 38.9321 17.0104 39.3163C16.9074 39.7006 16.9613 40.11 17.1603 40.4546L28.1603 59.5071C28.2587 59.6777 28.3899 59.8272 28.5462 59.9471C28.7024 60.0671 28.8808 60.155 29.0711 60.206C29.2613 60.257 29.4598 60.27 29.6551 60.2443C29.8504 60.2186 30.0387 60.1546 30.2093 60.0562L36.2715 56.5562C36.4421 56.4577 36.5916 56.3265 36.7115 56.1703C36.8314 56.014 36.9194 55.8356 36.9704 55.6453C37.0213 55.4551 37.0343 55.2566 37.0086 55.0613C36.9829 54.866 36.919 54.6777 36.8205 54.5071L25.8205 35.4546C25.6216 35.11 25.294 34.8586 24.9097 34.7557C24.5254 34.6527 24.116 34.7066 23.7715 34.9055ZM49.7522 19.9055L43.6901 23.4055C43.3455 23.6044 43.0941 23.9321 42.9912 24.3163C42.8882 24.7006 42.9421 25.11 43.141 25.4546L54.141 44.5071C54.2395 44.6777 54.3706 44.8272 54.5269 44.9471C54.6832 45.0671 54.8616 45.155 55.0518 45.206C55.2421 45.257 55.4405 45.27 55.6358 45.2443C55.8311 45.2186 56.0195 45.1546 56.1901 45.0561L62.2522 41.5562C62.4228 41.4577 62.5723 41.3265 62.6923 41.1703C62.8122 41.014 62.9001 40.8356 62.9511 40.6453C63.0021 40.4551 63.0151 40.2566 62.9894 40.0613C62.9637 39.866 62.8998 39.6777 62.8013 39.5071L51.8013 20.4546C51.6024 20.11 51.2747 19.8586 50.8905 19.7557C50.5062 19.6527 50.0968 19.7066 49.7522 19.9055Z" stroke="#575757" stroke-width="3.75" stroke-linecap="round" stroke-linejoin="round"/>
<path d="M31.3205 44.9808L48.641 34.9808M19.1651 58.9269L13.1651 48.5346C12.9662 48.1901 12.9122 47.7807 13.0152 47.3964C13.1182 47.0121 13.3696 46.6845 13.7141 46.4856L17.6112 44.2356C17.9557 44.0367 18.3652 43.9828 18.7494 44.0857C19.1337 44.1887 19.4613 44.4401 19.6603 44.7846L25.6603 55.1769C25.8592 55.5215 25.9131 55.9309 25.8101 56.3152C25.7071 56.6994 25.4557 57.0271 25.1112 57.226L21.2141 59.476C20.8696 59.6749 20.4601 59.7288 20.0759 59.6258C19.6916 59.5229 19.364 59.2715 19.1651 58.9269ZM66.7965 31.4269L60.7965 21.0346C60.5975 20.6901 60.2699 20.4387 59.8856 20.3357C59.5014 20.2328 59.0919 20.2867 58.7474 20.4856L54.8503 22.7356C54.5058 22.9345 54.2544 23.2621 54.1514 23.6464C54.0485 24.0307 54.1024 24.4401 54.3013 24.7846L60.3013 35.1769C60.5002 35.5215 60.8278 35.7729 61.2121 35.8758C61.5963 35.9788 62.0058 35.9249 62.3503 35.726L66.2474 33.476C66.5919 33.2771 66.8433 32.9494 66.9463 32.5652C67.0493 32.1809 66.9954 31.7715 66.7965 31.4269Z" stroke="#575757" stroke-width="3.75" stroke-linecap="round" stroke-linejoin="round"/>
</g>
</g>
<defs>
<clipPath id="clip0_2_257">
<rect width="80" height="80" rx="40" fill="white"/>
</clipPath>
<clipPath id="clip1_2_257">
<rect width="60" height="60" fill="white" transform="translate(-1 29) rotate(-30)"/>
</clipPath>
</defs>
</svg>
