<svg width="100" height="100" viewBox="0 0 100 100" fill="none" xmlns="http://www.w3.org/2000/svg">
<path d="M75 91.6667H25V69.152C25 67.5607 25.6321 66.0346 26.7574 64.9093L41.6667 50L26.7574 35.0907C25.6321 33.9655 25 32.4394 25 30.8481V14.3334C25 11.0197 27.6863 8.33337 31 8.33337H69C72.3137 8.33337 75 11.0197 75 14.3334V30.8481C75 32.4394 74.3679 33.9655 73.2426 35.0907L58.3333 50L75 66.6667M33.3333 31.25L50 47.9167L66.6667 31.25V16.6667H33.3333M50 52.0834L33.3333 68.75V83.3334H66.6667V68.75M58.3333 75H41.6667V71.6667L50 63.3334L58.3333 71.6667V75Z" fill="#575757"/>
</svg>
