<svg width="100" height="100" viewBox="0 0 100 100" fill="none" xmlns="http://www.w3.org/2000/svg">
<path d="M93.75 82.0313H86.7188V51.2383L88.9688 53.4883C89.4097 53.9217 90.0041 54.1633 90.6224 54.1604C91.2407 54.1575 91.8328 53.9104 92.2698 53.473C92.7067 53.0355 92.9531 52.4431 92.9553 51.8248C92.9574 51.2065 92.7152 50.6124 92.2812 50.1719L53.8672 11.7539C53.3594 11.2461 52.7565 10.8432 52.0929 10.5683C51.4294 10.2934 50.7182 10.152 50 10.152C49.2818 10.152 48.5706 10.2934 47.9071 10.5683C47.2435 10.8432 46.6406 11.2461 46.1328 11.7539L7.71875 50.1719C7.28485 50.6124 7.04259 51.2065 7.04473 51.8248C7.04688 52.4431 7.29326 53.0355 7.73021 53.473C8.16716 53.9104 8.75927 54.1575 9.37757 54.1604C9.99587 54.1633 10.5903 53.9217 11.0312 53.4883L13.2812 51.2383V82.0313H6.25C5.6284 82.0313 5.03226 82.2782 4.59272 82.7178C4.15318 83.1573 3.90625 83.7534 3.90625 84.375C3.90625 84.9966 4.15318 85.5928 4.59272 86.0323C5.03226 86.4719 5.6284 86.7188 6.25 86.7188H93.75C94.3716 86.7188 94.9677 86.4719 95.4073 86.0323C95.8468 85.5928 96.0938 84.9966 96.0938 84.375C96.0938 83.7534 95.8468 83.1573 95.4073 82.7178C94.9677 82.2782 94.3716 82.0313 93.75 82.0313ZM17.9688 46.5508L49.4453 15.0703C49.5179 14.9971 49.6043 14.939 49.6996 14.8993C49.7948 14.8597 49.8969 14.8392 50 14.8392C50.1031 14.8392 50.2052 14.8597 50.3004 14.8993C50.3957 14.939 50.4821 14.9971 50.5547 15.0703L82.0312 46.5508V82.0313H61.7188V59.375C61.7188 58.7534 61.4718 58.1573 61.0323 57.7177C60.5927 57.2782 59.9966 57.0313 59.375 57.0313H40.625C40.0034 57.0313 39.4073 57.2782 38.9677 57.7177C38.5282 58.1573 38.2812 58.7534 38.2812 59.375V82.0313H17.9688V46.5508ZM57.0312 82.0313H42.9688V61.7188H57.0312V82.0313Z" fill="#575757"/>
</svg>
