<svg width="100" height="100" viewBox="0 0 100 100" fill="none" xmlns="http://www.w3.org/2000/svg">
<path fill-rule="evenodd" clip-rule="evenodd" d="M44.1417 9.66252C45.9709 8.7884 47.9726 8.33472 50 8.33472C52.0274 8.33472 54.0291 8.7884 55.8583 9.66252C57.4708 10.4334 58.9417 11.6917 60.9875 13.4334L61.3125 13.7084C62.3042 14.5542 62.6167 14.8125 62.9333 15.025C63.7375 15.5667 64.6417 15.9375 65.5875 16.125C65.9625 16.2 66.3667 16.2375 67.6667 16.3375L68.0875 16.3709C70.7625 16.5834 72.6958 16.7375 74.3792 17.3292C76.2914 18.0068 78.0281 19.1029 79.4626 20.5374C80.8972 21.9719 81.9932 23.7087 82.6708 25.6209C83.2625 27.3042 83.4125 29.2375 83.6292 31.9125L83.6625 32.3334C83.7625 33.6334 83.8 34.0417 83.875 34.4125C84.0625 35.3625 84.4375 36.2667 84.975 37.0709C85.1875 37.3834 85.4458 37.6959 86.2917 38.6875L86.5667 39.0125C88.3125 41.0542 89.5667 42.5292 90.3375 44.1375C92.1083 47.8459 92.1083 52.1542 90.3375 55.8584C89.5708 57.4709 88.3125 58.9417 86.5667 60.9875L86.2917 61.3125C85.8246 61.8293 85.3851 62.3703 84.975 62.9334C84.4333 63.7375 84.0625 64.6417 83.875 65.5875C83.8 65.9625 83.7667 66.3667 83.6625 67.6667L83.625 68.0875C83.4167 70.7625 83.2625 72.6959 82.6667 74.3792C81.9921 76.2924 80.8976 78.0303 79.4635 79.4651C78.0294 80.9 76.2921 81.9954 74.3792 82.6709C72.6958 83.2625 70.7625 83.4125 68.0875 83.6292L67.6667 83.6625C66.9704 83.6968 66.2763 83.7677 65.5875 83.875C64.6388 84.0626 63.7366 84.4365 62.9333 84.975C62.3692 85.3855 61.8268 85.8249 61.3083 86.2917L60.9875 86.5667C58.9458 88.3125 57.4708 89.5667 55.8625 90.3375C54.0327 91.2123 52.0303 91.6663 50.0021 91.6663C47.9739 91.6663 45.9715 91.2123 44.1417 90.3375C42.5292 89.5709 41.0583 88.3125 39.0125 86.5667C38.9042 86.475 38.7959 86.3833 38.6875 86.2917C38.172 85.8249 37.6324 85.3854 37.0708 84.975C36.2668 84.4351 35.363 84.0611 34.4125 83.875C33.7237 83.7677 33.0297 83.6968 32.3333 83.6625L31.9125 83.625C29.2375 83.4167 27.3042 83.2625 25.6208 82.6667C23.7078 81.9919 21.97 80.8973 20.5352 79.4632C19.1004 78.0291 18.0049 76.2919 17.3292 74.3792C16.7375 72.6959 16.5833 70.7625 16.3708 68.0875L16.3375 67.6667C16.3033 66.9704 16.2323 66.2764 16.125 65.5875C15.9374 64.6388 15.5635 63.7367 15.025 62.9334C14.6151 62.3688 14.1756 61.8264 13.7083 61.3084L13.4333 60.9875C11.6917 58.9459 10.4333 57.4709 9.66251 55.8625C8.78775 54.0327 8.33371 52.0303 8.33371 50.0021C8.33371 47.9739 8.78775 45.9715 9.66251 44.1417C10.4333 42.5292 11.6917 41.0584 13.4333 39.0125L13.7083 38.6875C14.1753 38.1721 14.6148 37.6325 15.025 37.0709C15.5667 36.2667 15.9375 35.3625 16.125 34.4125C16.2 34.0375 16.2375 33.6334 16.3375 32.3334L16.3708 31.9125C16.5833 29.2375 16.7375 27.3042 17.3292 25.6209C18.0044 23.7073 19.0997 21.9693 20.5345 20.5345C21.9693 19.0997 23.7073 18.0044 25.6208 17.3292C27.3042 16.7375 29.2375 16.5834 31.9125 16.3709L32.3333 16.3375C33.0298 16.3057 33.724 16.2347 34.4125 16.125C35.3625 15.9375 36.2667 15.5625 37.0708 15.025C37.3833 14.8125 37.6958 14.5542 38.6875 13.7084L39.0125 13.4334C41.0542 11.6917 42.5333 10.4334 44.1417 9.66252ZM53.15 15.3209C52.1651 14.8503 51.0874 14.6061 49.9958 14.6061C48.9043 14.6061 47.8266 14.8503 46.8417 15.3209C46.0708 15.6875 45.2583 16.35 42.7542 18.4792L42.6292 18.5834C41.8083 19.2834 41.2125 19.7959 40.5583 20.2334C39.0625 21.2334 37.3875 21.9292 35.6208 22.275C34.85 22.4292 34.0667 22.4917 32.9875 22.5792L32.8292 22.5917C29.55 22.8542 28.5125 22.9625 27.7042 23.2459C25.6208 23.9834 23.9792 25.6209 23.2458 27.7084C22.9542 28.5167 22.85 29.5542 22.5875 32.8334L22.575 32.9917C22.4917 34.0709 22.425 34.8542 22.275 35.625C21.925 37.3917 21.2333 39.0667 20.2333 40.5625C19.7917 41.2167 19.2792 41.8125 18.5792 42.6375L18.475 42.7584C16.3458 45.2584 15.6833 46.075 15.3167 46.8417C14.8455 47.8272 14.6009 48.9056 14.6009 49.9979C14.6009 51.0903 14.8455 52.1687 15.3167 53.1542C15.6833 53.925 16.3458 54.7375 18.475 57.2417L18.5792 57.3667C19.2792 58.1875 19.7917 58.7834 20.2292 59.4375C21.2292 60.9334 21.925 62.6084 22.2708 64.375C22.425 65.1459 22.4875 65.9292 22.575 67.0084L22.5875 67.1667C22.85 70.4459 22.9583 71.4834 23.2417 72.2917C23.9792 74.375 25.6167 76.0167 27.7042 76.75C28.5125 77.0417 29.55 77.1459 32.8292 77.4084L32.9875 77.4209C34.0667 77.5042 34.85 77.5709 35.6208 77.7209C37.3875 78.0709 39.0625 78.7625 40.5583 79.7625C41.2125 80.2042 41.8083 80.7167 42.6333 81.4167L42.7542 81.5209C45.2542 83.65 46.0708 84.3125 46.8375 84.6792C47.823 85.1504 48.9014 85.395 49.9938 85.395C51.0861 85.395 52.1645 85.1504 53.15 84.6792C53.9208 84.3125 54.7333 83.65 57.2375 81.5209L57.3625 81.4167C58.1833 80.7167 58.7792 80.2042 59.4333 79.7667C60.9292 78.7667 62.6042 78.0709 64.3708 77.725C65.2421 77.5732 66.1213 77.4716 67.0042 77.4209L67.1625 77.4084C70.4417 77.1459 71.4792 77.0375 72.2875 76.7542C74.3708 76.0167 76.0125 74.3792 76.7458 72.2917C77.0375 71.4834 77.1417 70.4417 77.4042 67.1667L77.4167 67.0084C77.4659 66.1242 77.5661 65.2435 77.7167 64.3709C78.0667 62.6084 78.7583 60.9334 79.7583 59.4375C80.2 58.7834 80.7125 58.1875 81.4125 57.3625L81.5167 57.2417C83.6458 54.7417 84.3083 53.925 84.675 53.1584C85.1462 52.1729 85.3908 51.0944 85.3908 50.0021C85.3908 48.9098 85.1462 47.8313 84.675 46.8459C84.3083 46.075 83.6458 45.2625 81.5167 42.7584L81.4125 42.6334C80.7125 41.8125 80.2 41.2167 79.7625 40.5625C78.762 39.068 78.068 37.3897 77.7208 35.625C77.569 34.7538 77.4675 33.8746 77.4167 32.9917L77.4042 32.8334C77.1417 29.5542 77.0333 28.5167 76.75 27.7084C76.0125 25.625 74.375 23.9834 72.2875 23.25C71.4792 22.9584 70.4375 22.8542 67.1625 22.5917L67.0042 22.5792C66.12 22.5296 65.2394 22.4294 64.3667 22.2792C62.6034 21.9315 60.9266 21.2376 59.4333 20.2375C58.7792 19.7959 58.1833 19.2834 57.3583 18.5834L57.2375 18.4792C54.7375 16.35 53.9208 15.6875 53.1542 15.3209" fill="#575757"/>
<path fill-rule="evenodd" clip-rule="evenodd" d="M64.7625 35.2375C65.0539 35.5288 65.2851 35.8747 65.4428 36.2554C65.6005 36.6361 65.6817 37.0442 65.6817 37.4562C65.6817 37.8683 65.6005 38.2764 65.4428 38.6571C65.2851 39.0377 65.0539 39.3836 64.7625 39.675L39.675 64.7583C39.0818 65.3203 38.2927 65.6287 37.4756 65.6179C36.6585 65.607 35.8778 65.2778 35.2997 64.7002C34.7216 64.1227 34.3917 63.3423 34.38 62.5252C34.3684 61.7082 34.6761 60.9188 35.2375 60.325L60.325 35.2417C60.6164 34.9503 60.9623 34.7191 61.3429 34.5614C61.7236 34.4037 62.1317 34.3225 62.5438 34.3225C62.9558 34.3225 63.3639 34.4037 63.7446 34.5614C64.1252 34.7191 64.4711 34.9503 64.7625 35.2417" fill="#575757"/>
<path d="M64.6333 60.4542C64.651 61.0144 64.556 61.5724 64.3538 62.0951C64.1516 62.6179 63.8465 63.0947 63.4565 63.4972C63.0665 63.8997 62.5995 64.2198 62.0834 64.4383C61.5673 64.6569 61.0126 64.7695 60.4521 64.7695C59.8916 64.7695 59.3369 64.6569 58.8208 64.4383C58.3047 64.2198 57.8377 63.8997 57.4477 63.4972C57.0577 63.0947 56.7526 62.6179 56.5504 62.0951C56.3482 61.5724 56.2532 61.0144 56.2708 60.4542C56.3051 59.3681 56.7607 58.3379 57.5411 57.5818C58.3215 56.8257 59.3655 56.4028 60.4521 56.4028C61.5387 56.4028 62.5827 56.8257 63.3631 57.5818C64.1435 58.3379 64.5991 59.3681 64.6333 60.4542ZM43.7292 39.5458C43.7469 40.106 43.6518 40.6641 43.4496 41.1868C43.2475 41.7095 42.9423 42.1863 42.5523 42.5889C42.1623 42.9914 41.6954 43.3114 41.1793 43.53C40.6632 43.7485 40.1084 43.8612 39.5479 43.8612C38.9875 43.8612 38.4327 43.7485 37.9166 43.53C37.4005 43.3114 36.9336 42.9914 36.5436 42.5889C36.1535 42.1863 35.8484 41.7095 35.6462 41.1868C35.4441 40.6641 35.349 40.106 35.3667 39.5458C35.401 38.4597 35.8565 37.4296 36.6369 36.6735C37.4173 35.9173 38.4613 35.4945 39.5479 35.4945C40.6346 35.4945 41.6786 35.9173 42.4589 36.6735C43.2393 37.4296 43.6949 38.4597 43.7292 39.5458Z" fill="#575757"/>
</svg>
