<svg width="20" height="20" viewBox="0 0 20 20" fill="none" xmlns="http://www.w3.org/2000/svg">
<path d="M20 14.9996C20 15.5889 19.7659 16.1542 19.3491 16.5709C18.9324 16.9877 18.3671 17.2218 17.7778 17.2218H2.22222C1.63285 17.2218 1.06762 16.9877 0.650874 16.5709C0.234126 16.1542 0 15.5889 0 14.9996V12.7773H20V14.9996Z" fill="#CE2028"/>
<path d="M0 7.22266H20V12.7782H0V7.22266Z" fill="#22408C"/>
<path d="M17.7778 2.77734H2.22222C1.63285 2.77734 1.06762 3.01147 0.650874 3.42822C0.234126 3.84496 0 4.4102 0 4.99957L0 7.22179H20V4.99957C20 4.4102 19.7659 3.84496 19.3491 3.42822C18.9324 3.01147 18.3671 2.77734 17.7778 2.77734Z" fill="#EEEEEE"/>
</svg>
